{"title":"Sedem chasa razlika - Season 3 - Episode 9 - SatRip","uid":7845029,"size":390587402,"categoryP":"video","categoryS":"tv_shows","magnet":"?xt=urn:btih:80db2d709e564eccb903bdde6584d3eadf636802&amp;dn=Sedem+chasa+razlika+-+Season+3+-+Episode+9+-+SatRip&amp;tr=udp%3A%2F%2Ftracker.openbittorrent.com%3A80&amp;tr=udp%3A%2F%2Fopen.demonii.com%3A1337&amp;tr=udp%3A%2F%2Ftracker.coppersurfer.tk%3A6969&amp;tr=udp%3A%2F%2Fexodus.desync.com%3A6969","seeders":1,"leechers":0,"uploader":null,"files":1,"time":1353448826,"description":"Input #0, mov,mp4,m4a,3gp,3g2,mj2, from 'Sedem chasa razlika - Season 3 - Episode 9.mp4':\n  Metadata:\n    major_brand     : mp42\n    minor_version   : 0\n    compatible_brands: mp42isomavc1\n    creation_time   : 2012-11-20 20:41:14\n    encoder         : HandBrake 5044svn 2012110601\n  Duration: 00:46:52.26, start: 0.000000, bitrate: 1111 kb/s\n    Stream #0:0(und): Video: h264 (Main) (avc1 / 0x31637661), yuv420p, 720x576 [SAR 16:11 DAR 20:11], 1008 kb/s, 25 fps, 25 tbr, 90k tbn, 180k tbc\n    Metadata:\n      creation_time   : 2012-11-20 20:41:14\n    Stream #0:1(und): Audio: aac (mp4a / 0x6134706D), 48000 Hz, stereo, s16, 98 kb/s\n    Metadata:\n      creation_time   : 2012-11-20 20:41:14","torrent":{"xt":"urn:btih:80db2d709e564eccb903bdde6584d3eadf636802","amp;dn":"Sedem+chasa+razlika+-+Season+3+-+Episode+9+-+SatRip","amp;tr":["udp%3A%2F%2Ftracker.openbittorrent.com%3A80","udp%3A%2F%2Fopen.demonii.com%3A1337","udp%3A%2F%2Ftracker.coppersurfer.tk%3A6969","udp%3A%2F%2Fexodus.desync.com%3A6969"],"infoHash":"80db2d709e564eccb903bdde6584d3eadf636802","infoHashBuffer":{"type":"Buffer","data":[128,219,45,112,158,86,78,204,185,3,189,222,101,132,211,234,223,99,104,2]},"announce":[],"urlList":[]}}